<svg width="19" height="19" viewBox="0 0 19 19" fill="none" xmlns="http://www.w3.org/2000/svg">
<path d="M9.5 0.000486192C7.00708 -0.024846 4.6061 0.940647 2.82472 2.68478C1.04335 4.4289 0.0273429 6.80895 0 9.30185C0.00960569 11.272 0.64336 13.1883 1.81024 14.7757C2.97711 16.3631 4.61706 17.5398 6.49455 18.1369C6.96955 18.2232 7.14227 17.9382 7.14227 17.6878C7.14227 17.4373 7.14227 16.8846 7.14227 16.1073C4.49955 16.6687 3.93818 14.8637 3.93818 14.8637C3.76226 14.297 3.38825 13.8127 2.88455 13.4991C2.02091 12.9291 2.95364 12.9378 2.95364 12.9378C3.25215 12.9777 3.53776 13.0846 3.78904 13.2507C4.04032 13.4167 4.25075 13.6375 4.40455 13.8964C4.67256 14.3611 5.11232 14.7021 5.62919 14.8458C6.14606 14.9896 6.6987 14.9247 7.16818 14.665C7.21647 14.1921 7.43063 13.7515 7.77273 13.4214C5.66545 13.1882 3.45455 12.3937 3.45455 8.82685C3.4357 7.89644 3.77948 6.99517 4.41318 6.31367C4.12458 5.51486 4.15866 4.63503 4.50818 3.86094C4.50818 3.86094 5.31136 3.61049 7.09909 4.81094C8.65527 4.39626 10.2929 4.39626 11.8491 4.81094C13.6627 3.61049 14.44 3.86094 14.44 3.86094C14.7895 4.63503 14.8236 5.51486 14.535 6.31367C15.1834 6.98268 15.5458 7.8779 15.5455 8.80958C15.5455 12.385 13.3173 13.1709 11.2273 13.4041C11.4561 13.6263 11.6329 13.8964 11.7449 14.1951C11.8569 14.4938 11.9013 14.8135 11.875 15.1314V17.6791C11.875 17.6791 12.0477 18.2232 12.5227 18.1282C14.3949 17.5275 16.0293 16.3505 17.1926 14.7653C18.3558 13.1802 18.9884 11.268 19 9.30185C18.9727 6.80895 17.9567 4.4289 16.1753 2.68478C14.3939 0.940647 11.9929 -0.024846 9.5 0.000486192Z" fill="#1E1E1E"/>
</svg>
