<svg width="20" height="19" viewBox="0 0 20 19" fill="none" xmlns="http://www.w3.org/2000/svg">
<path fill-rule="evenodd" clip-rule="evenodd" d="M18.954 14.4C18.946 15.0982 18.8195 15.7901 18.58 16.446C18.4044 16.9247 18.1223 17.3573 17.755 17.711C17.3982 18.0746 16.9665 18.3561 16.49 18.536C15.8341 18.7755 15.1423 18.902 14.444 18.91C13.344 18.965 12.937 18.976 10.044 18.976C7.151 18.976 6.744 18.976 5.644 18.91C4.91898 18.9236 4.19705 18.8119 3.51 18.58C3.05436 18.3909 2.64249 18.1101 2.3 17.755C1.9349 17.4016 1.65633 16.9687 1.486 16.49C1.21744 15.8247 1.06849 15.1171 1.046 14.4C1.046 13.9804 1.0364 13.6617 1.02452 13.2673C1.00525 12.6278 0.98 11.7895 0.98 10C0.98 7.107 0.98 6.7 1.046 5.6C1.05093 4.88616 1.18125 4.17874 1.431 3.51C1.62465 3.0457 1.92189 2.63182 2.3 2.3C2.63419 1.92179 3.04722 1.62141 3.51 1.42C4.18051 1.17805 4.8872 1.05159 5.6 1.046C6.01957 1.046 6.33832 1.0364 6.73266 1.02452C7.37216 1.00525 8.21047 0.98 10 0.98C12.893 0.98 13.3 0.98 14.4 1.046C15.0982 1.05401 15.7901 1.18047 16.446 1.42C16.9459 1.60552 17.3945 1.90713 17.755 2.3C18.1155 2.6379 18.3971 3.05101 18.58 3.51C18.8245 4.17983 18.951 4.88696 18.954 5.6C19.009 6.7 19.02 7.107 19.02 10C19.02 12.893 19.009 13.3 18.954 14.4ZM15.1406 3.02846C15.3577 2.88342 15.6129 2.806 15.874 2.806C16.2241 2.806 16.5598 2.94507 16.8074 3.19262C17.0549 3.44017 17.194 3.77591 17.194 4.126C17.194 4.38707 17.1166 4.64228 16.9715 4.85935C16.8265 5.07643 16.6203 5.24561 16.3791 5.34552C16.1379 5.44543 15.8725 5.47157 15.6165 5.42064C15.3604 5.3697 15.1252 5.24399 14.9406 5.05938C14.756 4.87478 14.6303 4.63957 14.5794 4.38352C14.5284 4.12746 14.5546 3.86206 14.6545 3.62086C14.7544 3.37966 14.9236 3.1735 15.1406 3.02846ZM6.86792 5.31336C7.79446 4.69198 8.88439 4.35917 10 4.357C10.7424 4.3541 11.478 4.498 12.1646 4.78042C12.8511 5.06285 13.4751 5.47822 14.0006 6.00266C14.526 6.52709 14.9426 7.15024 15.2264 7.83625C15.5101 8.52227 15.6555 9.25762 15.654 10C15.654 11.1156 15.3233 12.2062 14.7037 13.1339C14.0842 14.0617 13.2035 14.785 12.173 15.2124C11.1425 15.6398 10.0085 15.7522 8.91415 15.5354C7.81981 15.3185 6.81431 14.7822 6.02468 13.9941C5.23506 13.206 4.69675 12.2015 4.47777 11.1076C4.2588 10.0137 4.36898 8.87944 4.7944 7.84813C5.21982 6.81682 5.94138 5.93474 6.86792 5.31336Z" fill="#1E1E1E"/>
<path d="M10 13.663C9.27553 13.663 8.56732 13.4482 7.96495 13.0457C7.36257 12.6432 6.89307 12.0711 6.61583 11.4018C6.33859 10.7324 6.26605 9.99594 6.40738 9.28538C6.54872 8.57483 6.89759 7.92215 7.40987 7.40987C7.92215 6.89759 8.57483 6.54872 9.28538 6.40738C9.99594 6.26605 10.7324 6.33859 11.4018 6.61583C12.0711 6.89307 12.6432 7.36257 13.0457 7.96495C13.4482 8.56732 13.663 9.27553 13.663 10C13.663 10.481 13.5683 10.9574 13.3842 11.4018C13.2001 11.8462 12.9303 12.25 12.5901 12.5901C12.25 12.9303 11.8462 13.2001 11.4018 13.3842C10.9574 13.5683 10.481 13.663 10 13.663Z" fill="#1E1E1E"/>
</svg>
