<svg width="892" height="359" viewBox="0 0 892 359" fill="none" xmlns="http://www.w3.org/2000/svg">
<path fill-rule="evenodd" clip-rule="evenodd" d="M607.662 213.324C590.557 286.923 524.562 341.763 445.758 341.763C353.96 341.763 279.543 267.346 279.543 175.548C279.543 96.7441 334.384 30.7489 407.982 13.6445V0.30249C251.896 18.4799 59.4793 138.973 11.3251 170.518C3.98796 175.325 0 178.066 0 178.066C0 178.066 3.98796 180.808 11.3251 185.614C63.4507 219.762 284.615 358.133 445.758 358.133C606.901 358.133 828.066 219.762 880.191 185.614C887.529 180.808 891.517 178.066 891.517 178.066C891.517 178.066 887.529 175.325 880.191 170.518C832.037 138.973 639.621 18.4801 483.535 0.302538V13.6446C544.997 27.9287 593.378 76.3092 607.662 137.772H620.567C610.242 89.7634 580.642 48.916 540.264 23.7284C605.254 40.0419 673.162 69.385 731.861 99.2558C775.715 121.572 813.898 143.902 841.117 160.655C852.297 167.535 861.617 173.469 868.71 178.066C861.617 182.664 852.297 188.597 841.117 195.478C813.898 212.23 775.715 234.56 731.861 256.877C668.414 289.164 594.207 320.835 524.555 336.101C572.901 312.329 608.945 267.363 620.567 213.324H607.662ZM159.656 256.877C223.103 289.164 297.31 320.835 366.961 336.101C307.721 306.972 266.951 246.021 266.951 175.548C266.951 111.493 300.633 55.3049 351.252 23.7284C286.262 40.0418 218.354 69.385 159.656 99.2558C115.802 121.572 77.6184 143.902 50.3994 160.655C39.2197 167.535 29.8996 173.469 22.8068 178.066C29.8996 182.664 39.2197 188.597 50.3994 195.478C77.6184 212.23 115.802 234.56 159.656 256.877Z" fill="#EDEDED"/>
</svg>
