<svg width="589" height="236" viewBox="0 0 589 236" fill="none" xmlns="http://www.w3.org/2000/svg">
<path fill-rule="evenodd" clip-rule="evenodd" d="M418.384 83.2473L439.73 63.2524L546.905 192.574L530.858 144.419L454.845 49.0943L454.85 49.0896L454.8 49.038L441.284 32.0886L439.592 34.0687L411.389 60.4864C402.145 44.4818 384.849 33.7118 365.038 33.7118C365.038 33.7118 365.038 33.7118 365.038 33.7118H332.943H332.943H322.245H311.547H236.66H225.962H225.962H215.264H44.0943L118.981 55.108H172.472V183.486H193.868V55.108H215.264V162.089H236.66V140.692H290.151V119.296H236.66V97.9017H290.151V76.5055H236.66V55.108H311.547V87.2023V162.089H215.264H193.868V183.486H215.264H311.547V183.485H332.943V129.999V85.5934H332.983C333.821 68.6158 347.852 55.1081 365.038 55.108C365.038 55.108 365.038 55.108 365.038 55.108C382.763 55.108 397.132 69.4771 397.132 87.2023C397.132 96.5552 393.131 104.974 386.748 110.84C383.152 113.614 379.768 116.213 374.587 119.72L410.633 171.175L461.924 203.41L404.028 123.822C413.02 114.252 418.528 101.37 418.528 87.2023C418.528 85.8721 418.48 84.5532 418.384 83.2473Z" fill="black"/>
<path d="M4.36016 222.534L6.21616 218.502H16.5202L18.3442 222.534H22.5362L11.7202 199.078L0.328157 222.534H4.36016ZM7.68816 215.27L11.4322 206.822L15.1122 215.27H7.68816ZM23.8554 221.734C25.9354 222.63 27.9514 223.078 29.9034 223.078C32.2394 223.078 34.1594 222.47 35.5994 221.254C37.0394 220.038 37.7754 218.438 37.7754 216.454C37.7754 213.798 36.0154 211.462 32.5274 209.382L30.8954 208.422C28.8794 207.238 27.8554 206.182 27.8554 205.286C27.8554 204.614 28.1434 204.07 28.6874 203.654C29.2314 203.238 29.9674 203.046 30.8954 203.046C32.3034 203.046 34.1594 203.654 36.4314 204.87L36.5594 200.71C34.5754 199.782 32.6874 199.334 30.8954 199.334C28.8794 199.334 27.2154 199.878 25.9034 200.966C24.6234 202.086 23.9834 203.494 23.9834 205.222C23.9834 206.438 24.3354 207.526 25.0714 208.486C25.8074 209.446 27.0554 210.438 28.7514 211.494L30.4474 212.518C32.6554 213.83 33.7754 215.11 33.7754 216.294C33.7754 217.222 33.3914 217.958 32.6554 218.502C31.9194 219.046 30.9594 219.334 29.7114 219.334C28.0474 219.334 25.9674 218.566 23.5034 217.03L23.8554 221.734ZM42.1272 222.534H48.2712C54.0632 222.534 56.9432 220.358 56.9432 216.038C56.9432 213.126 55.5672 211.27 52.8472 210.438C54.1592 209.894 55.0552 209.254 55.5992 208.518C56.1432 207.782 56.4312 206.79 56.4312 205.574C56.4312 201.766 53.9032 199.878 48.8792 199.878H42.1272V222.534ZM46.0632 209.286V202.886H48.1432C51.0552 202.886 52.5272 203.878 52.5272 205.894C52.5272 206.95 52.1432 207.782 51.4072 208.39C50.6712 208.998 49.6152 209.286 48.3032 209.286H46.0632ZM46.0632 219.366V212.294H48.7512C51.5992 212.294 53.0072 213.446 53.0072 215.782C53.0072 216.902 52.6552 217.798 51.9192 218.438C51.1832 219.046 50.1272 219.366 48.7832 219.366H46.0632ZM61.3772 222.534H74.7212V219.014H65.3132V212.39H73.2492V208.934H65.3132V203.366H74.5612V199.878H61.3772V222.534ZM78.3554 221.734C80.4354 222.63 82.4514 223.078 84.4034 223.078C86.7394 223.078 88.6594 222.47 90.0994 221.254C91.5394 220.038 92.2754 218.438 92.2754 216.454C92.2754 213.798 90.5154 211.462 87.0274 209.382L85.3954 208.422C83.3794 207.238 82.3554 206.182 82.3554 205.286C82.3554 204.614 82.6434 204.07 83.1874 203.654C83.7314 203.238 84.4674 203.046 85.3954 203.046C86.8034 203.046 88.6594 203.654 90.9314 204.87L91.0594 200.71C89.0754 199.782 87.1874 199.334 85.3954 199.334C83.3794 199.334 81.7154 199.878 80.4034 200.966C79.1234 202.086 78.4834 203.494 78.4834 205.222C78.4834 206.438 78.8354 207.526 79.5714 208.486C80.3074 209.446 81.5554 210.438 83.2514 211.494L84.9474 212.518C87.1554 213.83 88.2754 215.11 88.2754 216.294C88.2754 217.222 87.8914 217.958 87.1554 218.502C86.4194 219.046 85.4594 219.334 84.2114 219.334C82.5474 219.334 80.4674 218.566 78.0034 217.03L78.3554 221.734ZM105.336 203.334H112.984V199.878H93.7197V203.334H101.4V222.534H105.336V203.334ZM132.854 202.822C130.646 200.486 128.022 199.334 124.918 199.334C121.75 199.334 119.062 200.486 116.886 202.822C114.71 205.158 113.622 208.006 113.622 211.366C113.622 214.534 114.742 217.286 116.95 219.622C119.158 221.926 121.814 223.078 124.886 223.078C127.99 223.078 130.646 221.926 132.854 219.59C135.062 217.286 136.15 214.502 136.15 211.206C136.15 207.91 135.062 205.126 132.854 202.822ZM119.766 205.382C121.142 203.846 122.87 203.078 124.886 203.078C126.934 203.078 128.662 203.846 130.038 205.414C131.414 206.982 132.118 208.902 132.118 211.206C132.118 213.478 131.414 215.43 130.038 216.998C128.662 218.566 126.934 219.334 124.886 219.334C122.806 219.334 121.078 218.566 119.734 216.998C118.39 215.43 117.718 213.478 117.718 211.078C117.718 208.806 118.39 206.918 119.766 205.382ZM139.293 221.734C141.373 222.63 143.389 223.078 145.341 223.078C147.677 223.078 149.597 222.47 151.037 221.254C152.477 220.038 153.213 218.438 153.213 216.454C153.213 213.798 151.453 211.462 147.965 209.382L146.333 208.422C144.317 207.238 143.293 206.182 143.293 205.286C143.293 204.614 143.581 204.07 144.125 203.654C144.669 203.238 145.405 203.046 146.333 203.046C147.741 203.046 149.597 203.654 151.869 204.87L151.997 200.71C150.013 199.782 148.125 199.334 146.333 199.334C144.317 199.334 142.653 199.878 141.341 200.966C140.061 202.086 139.421 203.494 139.421 205.222C139.421 206.438 139.773 207.526 140.509 208.486C141.245 209.446 142.493 210.438 144.189 211.494L145.885 212.518C148.093 213.83 149.213 215.11 149.213 216.294C149.213 217.222 148.829 217.958 148.093 218.502C147.357 219.046 146.397 219.334 145.149 219.334C143.485 219.334 141.405 218.566 138.941 217.03L139.293 221.734ZM180.608 222.534H185.504L182.432 218.47C183.744 216.678 184.672 214.694 185.184 212.55L182.112 211.622C181.6 213.062 180.96 214.374 180.224 215.622L175.68 209.67C177.12 208.742 178.112 207.846 178.72 207.014C179.296 206.214 179.584 205.254 179.584 204.198C179.584 202.694 179.04 201.478 177.984 200.518C176.928 199.526 175.552 199.046 173.92 199.046C172.288 199.046 170.912 199.526 169.856 200.454C168.768 201.382 168.224 202.566 168.224 204.006C168.224 205.254 168.992 206.95 170.496 209.062C168.576 210.182 167.232 211.302 166.464 212.358C165.696 213.414 165.312 214.662 165.312 216.134C165.312 218.214 166.08 219.91 167.584 221.222C169.12 222.534 171.072 223.206 173.472 223.206C175.68 223.206 177.696 222.534 179.584 221.19L180.608 222.534ZM177.568 218.438C176.256 219.43 174.944 219.942 173.696 219.942C172.448 219.942 171.392 219.558 170.592 218.758C169.76 217.958 169.344 216.966 169.344 215.782C169.344 214.982 169.568 214.246 170.016 213.638C170.496 212.998 171.264 212.294 172.384 211.558L177.568 218.438ZM172.672 205.67C172.128 204.934 171.84 204.294 171.84 203.782C171.84 203.238 172.064 202.758 172.48 202.374C172.896 202.022 173.44 201.83 174.048 201.83C174.688 201.83 175.232 202.022 175.648 202.438C176.064 202.854 176.288 203.398 176.288 204.006C176.288 205.126 175.456 206.15 173.76 207.142L172.672 205.67ZM198.377 222.534H202.313V212.39H213.097V222.534H217.033V199.878H213.097V208.902H202.313V199.878H198.377V222.534ZM223.266 222.534L225.122 218.502H235.426L237.25 222.534H241.442L230.626 199.078L219.234 222.534H223.266ZM226.594 215.27L230.338 206.822L234.018 215.27H226.594ZM241.834 222.534H260.074L260.682 219.014H248.394L260.938 199.878H243.946L243.402 203.302H254.474L241.834 222.534ZM262.191 222.534H265.871L268.335 209.734L275.183 223.398L281.743 209.734L284.207 222.534H288.111L283.247 199.078L275.183 215.718L267.087 199.078L262.191 222.534ZM291.735 222.534L293.591 218.502H303.895L305.719 222.534H309.911L299.095 199.078L287.703 222.534H291.735ZM295.063 215.27L298.807 206.822L302.487 215.27H295.063ZM318.679 203.334H326.327V199.878H307.063V203.334H314.743V222.534H318.679V203.334ZM337.543 221.734C339.623 222.63 341.639 223.078 343.591 223.078C345.927 223.078 347.847 222.47 349.287 221.254C350.727 220.038 351.463 218.438 351.463 216.454C351.463 213.798 349.703 211.462 346.215 209.382L344.583 208.422C342.567 207.238 341.543 206.182 341.543 205.286C341.543 204.614 341.831 204.07 342.375 203.654C342.919 203.238 343.655 203.046 344.583 203.046C345.991 203.046 347.847 203.654 350.119 204.87L350.247 200.71C348.263 199.782 346.375 199.334 344.583 199.334C342.567 199.334 340.903 199.878 339.591 200.966C338.311 202.086 337.671 203.494 337.671 205.222C337.671 206.438 338.023 207.526 338.759 208.486C339.495 209.446 340.743 210.438 342.439 211.494L344.135 212.518C346.343 213.83 347.463 215.11 347.463 216.294C347.463 217.222 347.079 217.958 346.343 218.502C345.607 219.046 344.647 219.334 343.399 219.334C341.735 219.334 339.655 218.566 337.191 217.03L337.543 221.734ZM373.479 202.822C371.271 200.486 368.647 199.334 365.543 199.334C362.375 199.334 359.687 200.486 357.511 202.822C355.335 205.158 354.247 208.006 354.247 211.366C354.247 214.534 355.367 217.286 357.575 219.622C359.783 221.926 362.439 223.078 365.511 223.078C368.615 223.078 371.271 221.926 373.479 219.59C375.687 217.286 376.775 214.502 376.775 211.206C376.775 207.91 375.687 205.126 373.479 202.822ZM360.391 205.382C361.767 203.846 363.495 203.078 365.511 203.078C367.559 203.078 369.287 203.846 370.663 205.414C372.039 206.982 372.743 208.902 372.743 211.206C372.743 213.478 372.039 215.43 370.663 216.998C369.287 218.566 367.559 219.334 365.511 219.334C363.431 219.334 361.703 218.566 360.359 216.998C359.015 215.43 358.343 213.478 358.343 211.078C358.343 208.806 359.015 206.918 360.391 205.382ZM380.846 222.534H394.542V218.982H384.782V199.878H380.846V222.534ZM400.432 199.878H396.496V212.934C396.496 216.166 397.328 218.694 398.96 220.454C400.592 222.214 402.928 223.078 405.968 223.078C409.008 223.078 411.376 222.182 413.04 220.422C414.672 218.662 415.504 216.134 415.504 212.87V199.878H411.568V212.902C411.568 217.382 409.712 219.622 405.968 219.622C402.288 219.622 400.432 217.414 400.432 212.998V199.878ZM429.773 203.334H437.421V199.878H418.157V203.334H425.837V222.534H429.773V203.334ZM440.377 222.534H444.313V199.878H440.377V222.534ZM467.604 202.822C465.396 200.486 462.772 199.334 459.668 199.334C456.5 199.334 453.812 200.486 451.636 202.822C449.46 205.158 448.372 208.006 448.372 211.366C448.372 214.534 449.492 217.286 451.7 219.622C453.908 221.926 456.564 223.078 459.636 223.078C462.74 223.078 465.396 221.926 467.604 219.59C469.812 217.286 470.9 214.502 470.9 211.206C470.9 207.91 469.812 205.126 467.604 202.822ZM454.516 205.382C455.892 203.846 457.62 203.078 459.636 203.078C461.684 203.078 463.412 203.846 464.788 205.414C466.164 206.982 466.868 208.902 466.868 211.206C466.868 213.478 466.164 215.43 464.788 216.998C463.412 218.566 461.684 219.334 459.636 219.334C457.556 219.334 455.828 218.566 454.484 216.998C453.14 215.43 452.468 213.478 452.468 211.078C452.468 208.806 453.14 206.918 454.516 205.382ZM474.971 222.534H478.907V208.262L493.851 223.398V199.878H489.915V214.182L474.971 199.078V222.534ZM498.543 221.734C500.623 222.63 502.639 223.078 504.591 223.078C506.927 223.078 508.847 222.47 510.287 221.254C511.727 220.038 512.463 218.438 512.463 216.454C512.463 213.798 510.703 211.462 507.215 209.382L505.583 208.422C503.567 207.238 502.543 206.182 502.543 205.286C502.543 204.614 502.831 204.07 503.375 203.654C503.919 203.238 504.655 203.046 505.583 203.046C506.991 203.046 508.847 203.654 511.119 204.87L511.247 200.71C509.263 199.782 507.375 199.334 505.583 199.334C503.567 199.334 501.903 199.878 500.591 200.966C499.311 202.086 498.671 203.494 498.671 205.222C498.671 206.438 499.023 207.526 499.759 208.486C500.495 209.446 501.743 210.438 503.439 211.494L505.135 212.518C507.343 213.83 508.463 215.11 508.463 216.294C508.463 217.222 508.079 217.958 507.343 218.502C506.607 219.046 505.647 219.334 504.399 219.334C502.735 219.334 500.655 218.566 498.191 217.03L498.543 221.734ZM526.002 222.534H539.698V218.982H529.938V199.878H526.002V222.534ZM548.867 203.334H556.515V199.878H537.251V203.334H544.931V222.534H548.867V203.334ZM559.471 222.534H564.943C568.239 222.534 570.895 221.958 572.911 220.838C576.655 218.758 578.511 215.526 578.511 211.174C578.511 207.686 577.295 204.902 574.895 202.886C572.463 200.87 569.135 199.878 564.943 199.878H559.471V222.534ZM563.407 218.918V203.494H565.455C568.271 203.494 570.479 204.166 572.079 205.542C573.647 206.918 574.447 208.806 574.447 211.206C574.447 213.606 573.647 215.494 572.079 216.87C570.479 218.246 568.271 218.918 565.455 218.918H563.407ZM585.797 219.59C585.381 219.206 584.901 219.014 584.325 219.014C583.781 219.014 583.301 219.206 582.917 219.622C582.501 220.038 582.309 220.518 582.309 221.094C582.309 221.638 582.501 222.086 582.917 222.47C583.333 222.886 583.781 223.078 584.325 223.078C584.869 223.078 585.349 222.886 585.765 222.502C586.181 222.086 586.373 221.606 586.373 221.062C586.373 220.486 586.181 220.006 585.797 219.59Z" fill="#082C05"/>
</svg>
